<mxfile host="app.diagrams.net" agent="Mozilla/5.0 (Windows NT 10.0; Win64; x64) AppleWebKit/537.36 (KHTML, like Gecko) Chrome/130.0.0.0 Safari/537.36 Edg/130.0.0.0" version="24.8.6">
  <diagram id="K2JQPsV1o4M9DW_nq5-Z" name="Pagina-1">
    <mxGraphModel dx="3230" dy="1070" grid="1" gridSize="10" guides="1" tooltips="1" connect="1" arrows="1" fold="1" page="1" pageScale="1" pageWidth="850" pageHeight="1100" math="0" shadow="0">
      <root>
        <mxCell id="0" />
        <mxCell id="1" parent="0" />
        <mxCell id="NuIHAraIDTzX2-PyyU_d-156" value="" style="rounded=0;whiteSpace=wrap;html=1;strokeColor=#666600;" parent="1" vertex="1">
          <mxGeometry x="-40" y="20" width="1960" height="1900" as="geometry" />
        </mxCell>
        <mxCell id="NuIHAraIDTzX2-PyyU_d-148" style="edgeStyle=orthogonalEdgeStyle;rounded=0;orthogonalLoop=1;jettySize=auto;html=1;exitX=1;exitY=0.5;exitDx=0;exitDy=0;entryX=0.5;entryY=0;entryDx=0;entryDy=0;strokeColor=#CC0000;" parent="1" source="NuIHAraIDTzX2-PyyU_d-138" target="NuIHAraIDTzX2-PyyU_d-60" edge="1">
          <mxGeometry relative="1" as="geometry">
            <Array as="points">
              <mxPoint x="1785" y="830" />
              <mxPoint x="1785" y="1690" />
              <mxPoint x="870" y="1690" />
            </Array>
          </mxGeometry>
        </mxCell>
        <mxCell id="NuIHAraIDTzX2-PyyU_d-115" style="edgeStyle=orthogonalEdgeStyle;rounded=0;orthogonalLoop=1;jettySize=auto;html=1;exitX=0;exitY=0.5;exitDx=0;exitDy=0;entryX=0.5;entryY=0;entryDx=0;entryDy=0;" parent="1" source="NuIHAraIDTzX2-PyyU_d-104" target="NuIHAraIDTzX2-PyyU_d-60" edge="1">
          <mxGeometry relative="1" as="geometry">
            <Array as="points">
              <mxPoint x="80" y="1420" />
              <mxPoint x="80" y="1690" />
              <mxPoint x="870" y="1690" />
            </Array>
          </mxGeometry>
        </mxCell>
        <mxCell id="NuIHAraIDTzX2-PyyU_d-114" style="edgeStyle=orthogonalEdgeStyle;rounded=0;orthogonalLoop=1;jettySize=auto;html=1;exitX=0;exitY=0.5;exitDx=0;exitDy=0;entryX=0.5;entryY=0;entryDx=0;entryDy=0;strokeColor=#CC00CC;" parent="1" source="NuIHAraIDTzX2-PyyU_d-103" target="NuIHAraIDTzX2-PyyU_d-59" edge="1">
          <mxGeometry relative="1" as="geometry">
            <Array as="points">
              <mxPoint x="40" y="1393" />
              <mxPoint x="40" y="1740" />
              <mxPoint x="550" y="1740" />
            </Array>
          </mxGeometry>
        </mxCell>
        <mxCell id="NuIHAraIDTzX2-PyyU_d-113" style="edgeStyle=orthogonalEdgeStyle;rounded=0;orthogonalLoop=1;jettySize=auto;html=1;exitX=0;exitY=0.5;exitDx=0;exitDy=0;entryX=0.5;entryY=0;entryDx=0;entryDy=0;strokeColor=#00CC66;" parent="1" source="NuIHAraIDTzX2-PyyU_d-102" target="NuIHAraIDTzX2-PyyU_d-58" edge="1">
          <mxGeometry relative="1" as="geometry">
            <Array as="points">
              <mxPoint y="1367" />
              <mxPoint y="1780" />
              <mxPoint x="230" y="1780" />
            </Array>
          </mxGeometry>
        </mxCell>
        <mxCell id="NuIHAraIDTzX2-PyyU_d-1" value="started" style="swimlane;fontStyle=0;childLayout=stackLayout;horizontal=1;startSize=26;fillColor=#E6E6E6;horizontalStack=0;resizeParent=1;resizeParentMax=0;resizeLast=0;collapsible=1;marginBottom=0;html=1;" parent="1" vertex="1">
          <mxGeometry x="120" y="90" width="335" height="152" as="geometry">
            <mxRectangle x="95" y="90" width="80" height="30" as="alternateBounds" />
          </mxGeometry>
        </mxCell>
        <mxCell id="NuIHAraIDTzX2-PyyU_d-2" value="FO:&amp;nbsp;instance_to_&amp;lt;BO&amp;gt;_sended" style="text;strokeColor=none;fillColor=#AEE0D7;align=left;verticalAlign=top;spacingLeft=4;spacingRight=4;overflow=hidden;rotatable=0;points=[[0,0.5],[1,0.5]];portConstraint=eastwest;whiteSpace=wrap;html=1;" parent="NuIHAraIDTzX2-PyyU_d-1" vertex="1">
          <mxGeometry y="26" width="335" height="26" as="geometry" />
        </mxCell>
        <mxCell id="NuIHAraIDTzX2-PyyU_d-4" value="FO:&amp;nbsp;submitter_cancel_requested" style="text;strokeColor=none;fillColor=#AEE0D7;align=left;verticalAlign=top;spacingLeft=4;spacingRight=4;overflow=hidden;rotatable=0;points=[[0,0.5],[1,0.5]];portConstraint=eastwest;whiteSpace=wrap;html=1;" parent="NuIHAraIDTzX2-PyyU_d-1" vertex="1">
          <mxGeometry y="52" width="335" height="22" as="geometry" />
        </mxCell>
        <mxCell id="NuIHAraIDTzX2-PyyU_d-3" value="FO:&amp;nbsp;receipt_sended" style="text;strokeColor=#67AB9F;fillColor=#AEE0D7;align=left;verticalAlign=top;spacingLeft=4;spacingRight=4;overflow=hidden;rotatable=0;points=[[0,0.5],[1,0.5]];portConstraint=eastwest;whiteSpace=wrap;html=1;" parent="NuIHAraIDTzX2-PyyU_d-1" vertex="1">
          <mxGeometry y="74" width="335" height="26" as="geometry" />
        </mxCell>
        <mxCell id="NuIHAraIDTzX2-PyyU_d-19" value="BO:&amp;nbsp;instance_retrived" style="text;strokeColor=none;fillColor=#FFF2CC;align=left;verticalAlign=top;spacingLeft=4;spacingRight=4;overflow=hidden;rotatable=0;points=[[0,0.5],[1,0.5]];portConstraint=eastwest;whiteSpace=wrap;html=1;" parent="NuIHAraIDTzX2-PyyU_d-1" vertex="1">
          <mxGeometry y="100" width="335" height="26" as="geometry" />
        </mxCell>
        <mxCell id="NuIHAraIDTzX2-PyyU_d-20" value="BO:&amp;nbsp;end_by_submitter_cancel_requested" style="text;strokeColor=#FF0000;fillColor=#FFF2CC;align=left;verticalAlign=top;spacingLeft=4;spacingRight=4;overflow=hidden;rotatable=0;points=[[0,0.5],[1,0.5]];portConstraint=eastwest;whiteSpace=wrap;html=1;" parent="NuIHAraIDTzX2-PyyU_d-1" vertex="1">
          <mxGeometry y="126" width="335" height="26" as="geometry" />
        </mxCell>
        <mxCell id="NuIHAraIDTzX2-PyyU_d-5" value="presented" style="swimlane;fontStyle=0;childLayout=stackLayout;horizontal=1;startSize=26;fillColor=#E6E6E6;horizontalStack=0;resizeParent=1;resizeParentMax=0;resizeLast=0;collapsible=1;marginBottom=0;html=1;" parent="1" vertex="1">
          <mxGeometry x="110" y="380" width="335" height="412" as="geometry" />
        </mxCell>
        <mxCell id="NuIHAraIDTzX2-PyyU_d-28" value="FO:&amp;nbsp;submitter_cancel_requested" style="text;strokeColor=none;fillColor=#AEE0D7;align=left;verticalAlign=top;spacingLeft=4;spacingRight=4;overflow=hidden;rotatable=0;points=[[0,0.5],[1,0.5]];portConstraint=eastwest;whiteSpace=wrap;html=1;" parent="NuIHAraIDTzX2-PyyU_d-5" vertex="1">
          <mxGeometry y="26" width="335" height="22" as="geometry" />
        </mxCell>
        <mxCell id="NuIHAraIDTzX2-PyyU_d-34" value="BO:&amp;nbsp;instance_retrived" style="text;strokeColor=none;fillColor=#FFF2CC;align=left;verticalAlign=top;spacingLeft=4;spacingRight=4;overflow=hidden;rotatable=0;points=[[0,0.5],[1,0.5]];portConstraint=eastwest;whiteSpace=wrap;html=1;" parent="NuIHAraIDTzX2-PyyU_d-5" vertex="1">
          <mxGeometry y="48" width="335" height="26" as="geometry" />
        </mxCell>
        <mxCell id="NuIHAraIDTzX2-PyyU_d-37" value="BO:&amp;nbsp;correction_request" style="text;strokeColor=#006600;fillColor=#FFF2CC;align=left;verticalAlign=top;spacingLeft=4;spacingRight=4;overflow=hidden;rotatable=0;points=[[0,0.5],[1,0.5]];portConstraint=eastwest;whiteSpace=wrap;html=1;" parent="NuIHAraIDTzX2-PyyU_d-5" vertex="1">
          <mxGeometry y="74" width="335" height="26" as="geometry" />
        </mxCell>
        <mxCell id="NuIHAraIDTzX2-PyyU_d-35" value="BO:&amp;nbsp;instance_to_&amp;lt;ET&amp;gt;_sended" style="text;strokeColor=none;fillColor=#FFF2CC;align=left;verticalAlign=top;spacingLeft=4;spacingRight=4;overflow=hidden;rotatable=0;points=[[0,0.5],[1,0.5]];portConstraint=eastwest;whiteSpace=wrap;html=1;" parent="NuIHAraIDTzX2-PyyU_d-5" vertex="1">
          <mxGeometry y="100" width="335" height="26" as="geometry" />
        </mxCell>
        <mxCell id="NuIHAraIDTzX2-PyyU_d-32" value="BO:&amp;nbsp;integration_requested" style="text;strokeColor=#666600;fillColor=#FFF2CC;align=left;verticalAlign=top;spacingLeft=4;spacingRight=4;overflow=hidden;rotatable=0;points=[[0,0.5],[1,0.5]];portConstraint=eastwest;whiteSpace=wrap;html=1;" parent="NuIHAraIDTzX2-PyyU_d-5" vertex="1">
          <mxGeometry y="126" width="335" height="26" as="geometry" />
        </mxCell>
        <mxCell id="NuIHAraIDTzX2-PyyU_d-33" value="BO:&amp;nbsp;integration_request_time_expired" style="text;strokeColor=none;fillColor=#FFF2CC;align=left;verticalAlign=top;spacingLeft=4;spacingRight=4;overflow=hidden;rotatable=0;points=[[0,0.5],[1,0.5]];portConstraint=eastwest;whiteSpace=wrap;html=1;" parent="NuIHAraIDTzX2-PyyU_d-5" vertex="1">
          <mxGeometry y="152" width="335" height="26" as="geometry" />
        </mxCell>
        <mxCell id="NuIHAraIDTzX2-PyyU_d-8" value="BO:&amp;nbsp;end_by_submitter_cancel_requested" style="text;strokeColor=#FF0000;fillColor=#FFF2CC;align=left;verticalAlign=top;spacingLeft=4;spacingRight=4;overflow=hidden;rotatable=0;points=[[0,0.5],[1,0.5]];portConstraint=eastwest;whiteSpace=wrap;html=1;" parent="NuIHAraIDTzX2-PyyU_d-5" vertex="1">
          <mxGeometry y="178" width="335" height="26" as="geometry" />
        </mxCell>
        <mxCell id="NuIHAraIDTzX2-PyyU_d-6" value="BO:&amp;nbsp;end_by_conformation_requested&amp;nbsp;" style="text;strokeColor=#00CC66;fillColor=#FFF2CC;align=left;verticalAlign=top;spacingLeft=4;spacingRight=4;overflow=hidden;rotatable=0;points=[[0,0.5],[1,0.5]];portConstraint=eastwest;whiteSpace=wrap;html=1;" parent="NuIHAraIDTzX2-PyyU_d-5" vertex="1">
          <mxGeometry y="204" width="335" height="26" as="geometry" />
        </mxCell>
        <mxCell id="NuIHAraIDTzX2-PyyU_d-7" value="BO:&amp;nbsp;end_by_proceeding_time_expired" style="text;strokeColor=#CC00CC;fillColor=#FFF2CC;align=left;verticalAlign=top;spacingLeft=4;spacingRight=4;overflow=hidden;rotatable=0;points=[[0,0.5],[1,0.5]];portConstraint=eastwest;whiteSpace=wrap;html=1;" parent="NuIHAraIDTzX2-PyyU_d-5" vertex="1">
          <mxGeometry y="230" width="335" height="26" as="geometry" />
        </mxCell>
        <mxCell id="NuIHAraIDTzX2-PyyU_d-31" value="BO:&amp;nbsp;end_by_suspension_requested" style="text;strokeColor=#CC0000;fillColor=#FFF2CC;align=left;verticalAlign=top;spacingLeft=4;spacingRight=4;overflow=hidden;rotatable=0;points=[[0,0.5],[1,0.5]];portConstraint=eastwest;whiteSpace=wrap;html=1;" parent="NuIHAraIDTzX2-PyyU_d-5" vertex="1">
          <mxGeometry y="256" width="335" height="26" as="geometry" />
        </mxCell>
        <mxCell id="NuIHAraIDTzX2-PyyU_d-41" value="BO:&amp;nbsp;end_by_instance_refused" style="text;strokeColor=#7F00FF;fillColor=#FFF2CC;align=left;verticalAlign=top;spacingLeft=4;spacingRight=4;overflow=hidden;rotatable=0;points=[[0,0.5],[1,0.5]];portConstraint=eastwest;whiteSpace=wrap;html=1;" parent="NuIHAraIDTzX2-PyyU_d-5" vertex="1">
          <mxGeometry y="282" width="335" height="26" as="geometry" />
        </mxCell>
        <mxCell id="NuIHAraIDTzX2-PyyU_d-36" value="ET:&amp;nbsp;instance_retrived" style="text;strokeColor=none;fillColor=#D4E1F5;align=left;verticalAlign=top;spacingLeft=4;spacingRight=4;overflow=hidden;rotatable=0;points=[[0,0.5],[1,0.5]];portConstraint=eastwest;whiteSpace=wrap;html=1;" parent="NuIHAraIDTzX2-PyyU_d-5" vertex="1">
          <mxGeometry y="308" width="335" height="26" as="geometry" />
        </mxCell>
        <mxCell id="NuIHAraIDTzX2-PyyU_d-38" value="ET:&amp;nbsp;conformation_requested" style="text;strokeColor=none;fillColor=#D4E1F5;align=left;verticalAlign=top;spacingLeft=4;spacingRight=4;overflow=hidden;rotatable=0;points=[[0,0.5],[1,0.5]];portConstraint=eastwest;whiteSpace=wrap;html=1;" parent="NuIHAraIDTzX2-PyyU_d-5" vertex="1">
          <mxGeometry y="334" width="335" height="26" as="geometry" />
        </mxCell>
        <mxCell id="NuIHAraIDTzX2-PyyU_d-39" value="ET:&amp;nbsp;suspension_requested" style="text;strokeColor=none;fillColor=#D4E1F5;align=left;verticalAlign=top;spacingLeft=4;spacingRight=4;overflow=hidden;rotatable=0;points=[[0,0.5],[1,0.5]];portConstraint=eastwest;whiteSpace=wrap;html=1;" parent="NuIHAraIDTzX2-PyyU_d-5" vertex="1">
          <mxGeometry y="360" width="335" height="26" as="geometry" />
        </mxCell>
        <mxCell id="NuIHAraIDTzX2-PyyU_d-40" value="ET:&amp;nbsp;integration_requested_from_&amp;lt;ET&amp;gt;" style="text;strokeColor=none;fillColor=#D4E1F5;align=left;verticalAlign=top;spacingLeft=4;spacingRight=4;overflow=hidden;rotatable=0;points=[[0,0.5],[1,0.5]];portConstraint=eastwest;whiteSpace=wrap;html=1;" parent="NuIHAraIDTzX2-PyyU_d-5" vertex="1">
          <mxGeometry y="386" width="335" height="26" as="geometry" />
        </mxCell>
        <mxCell id="NuIHAraIDTzX2-PyyU_d-9" value="ended_by_submitter_cancel_requested" style="swimlane;fontStyle=0;childLayout=stackLayout;horizontal=1;startSize=26;fillColor=#CFCFCF;horizontalStack=0;resizeParent=1;resizeParentMax=0;resizeLast=0;collapsible=1;marginBottom=0;html=1;strokeColor=#FF0000;" parent="1" vertex="1">
          <mxGeometry x="710" y="80" width="280" height="52" as="geometry" />
        </mxCell>
        <mxCell id="NuIHAraIDTzX2-PyyU_d-26" style="edgeStyle=orthogonalEdgeStyle;rounded=0;orthogonalLoop=1;jettySize=auto;html=1;exitX=1;exitY=0.5;exitDx=0;exitDy=0;entryX=0.5;entryY=1;entryDx=0;entryDy=0;strokeColor=#FF0000;" parent="1" source="NuIHAraIDTzX2-PyyU_d-20" target="NuIHAraIDTzX2-PyyU_d-9" edge="1">
          <mxGeometry relative="1" as="geometry" />
        </mxCell>
        <mxCell id="NuIHAraIDTzX2-PyyU_d-29" style="edgeStyle=orthogonalEdgeStyle;rounded=0;orthogonalLoop=1;jettySize=auto;html=1;entryX=0.5;entryY=0;entryDx=0;entryDy=0;exitX=0;exitY=0.5;exitDx=0;exitDy=0;strokeColor=#67AB9F;" parent="1" source="NuIHAraIDTzX2-PyyU_d-3" target="NuIHAraIDTzX2-PyyU_d-5" edge="1">
          <mxGeometry relative="1" as="geometry">
            <Array as="points">
              <mxPoint x="75" y="177" />
              <mxPoint x="75" y="280" />
              <mxPoint x="278" y="280" />
            </Array>
          </mxGeometry>
        </mxCell>
        <mxCell id="NuIHAraIDTzX2-PyyU_d-58" value="ended_by_conformation_requested" style="swimlane;fontStyle=0;childLayout=stackLayout;horizontal=1;startSize=26;fillColor=#CFCFCF;horizontalStack=0;resizeParent=1;resizeParentMax=0;resizeLast=0;collapsible=1;marginBottom=0;html=1;strokeColor=#00CC66;" parent="1" vertex="1">
          <mxGeometry x="90" y="1822" width="280" height="52" as="geometry" />
        </mxCell>
        <mxCell id="NuIHAraIDTzX2-PyyU_d-59" value="ended_by_proceeding_time_expired" style="swimlane;fontStyle=0;childLayout=stackLayout;horizontal=1;startSize=26;fillColor=#CFCFCF;horizontalStack=0;resizeParent=1;resizeParentMax=0;resizeLast=0;collapsible=1;marginBottom=0;html=1;strokeColor=#CC00CC;" parent="1" vertex="1">
          <mxGeometry x="410" y="1822" width="280" height="52" as="geometry" />
        </mxCell>
        <mxCell id="NuIHAraIDTzX2-PyyU_d-60" value="ended_by_suspension_requested" style="swimlane;fontStyle=0;childLayout=stackLayout;horizontal=1;startSize=26;fillColor=#CFCFCF;horizontalStack=0;resizeParent=1;resizeParentMax=0;resizeLast=0;collapsible=1;marginBottom=0;html=1;strokeColor=#CC0000;" parent="1" vertex="1">
          <mxGeometry x="730" y="1822" width="280" height="52" as="geometry" />
        </mxCell>
        <mxCell id="NuIHAraIDTzX2-PyyU_d-61" value="refused" style="swimlane;fontStyle=0;childLayout=stackLayout;horizontal=1;startSize=26;fillColor=#CFCFCF;horizontalStack=0;resizeParent=1;resizeParentMax=0;resizeLast=0;collapsible=1;marginBottom=0;html=1;strokeColor=#7F00FF;" parent="1" vertex="1">
          <mxGeometry x="1000" y="1120" width="280" height="52" as="geometry" />
        </mxCell>
        <mxCell id="NuIHAraIDTzX2-PyyU_d-62" style="edgeStyle=orthogonalEdgeStyle;rounded=0;orthogonalLoop=1;jettySize=auto;html=1;entryX=0.5;entryY=0;entryDx=0;entryDy=0;strokeColor=#7F00FF;" parent="1" source="NuIHAraIDTzX2-PyyU_d-41" target="NuIHAraIDTzX2-PyyU_d-61" edge="1">
          <mxGeometry relative="1" as="geometry">
            <Array as="points">
              <mxPoint x="600" y="675" />
              <mxPoint x="600" y="855" />
              <mxPoint x="1140" y="855" />
            </Array>
          </mxGeometry>
        </mxCell>
        <mxCell id="NuIHAraIDTzX2-PyyU_d-63" style="edgeStyle=orthogonalEdgeStyle;rounded=0;orthogonalLoop=1;jettySize=auto;html=1;entryX=0.5;entryY=1;entryDx=0;entryDy=0;strokeColor=#FF0000;" parent="1" source="NuIHAraIDTzX2-PyyU_d-8" target="NuIHAraIDTzX2-PyyU_d-9" edge="1">
          <mxGeometry relative="1" as="geometry" />
        </mxCell>
        <mxCell id="NuIHAraIDTzX2-PyyU_d-66" style="edgeStyle=orthogonalEdgeStyle;rounded=0;orthogonalLoop=1;jettySize=auto;html=1;entryX=0.5;entryY=0;entryDx=0;entryDy=0;exitX=0;exitY=0.5;exitDx=0;exitDy=0;strokeColor=#00CC66;" parent="1" source="NuIHAraIDTzX2-PyyU_d-6" target="NuIHAraIDTzX2-PyyU_d-58" edge="1">
          <mxGeometry relative="1" as="geometry">
            <mxPoint x="110" y="570" as="sourcePoint" />
            <mxPoint x="260" y="919" as="targetPoint" />
            <Array as="points">
              <mxPoint y="597" />
              <mxPoint y="1780" />
              <mxPoint x="230" y="1780" />
            </Array>
          </mxGeometry>
        </mxCell>
        <mxCell id="NuIHAraIDTzX2-PyyU_d-67" style="edgeStyle=orthogonalEdgeStyle;rounded=0;orthogonalLoop=1;jettySize=auto;html=1;exitX=0;exitY=0.5;exitDx=0;exitDy=0;entryX=0.5;entryY=0;entryDx=0;entryDy=0;strokeColor=#CC00CC;" parent="1" source="NuIHAraIDTzX2-PyyU_d-7" target="NuIHAraIDTzX2-PyyU_d-59" edge="1">
          <mxGeometry relative="1" as="geometry">
            <Array as="points">
              <mxPoint x="40" y="623" />
              <mxPoint x="40" y="1740" />
              <mxPoint x="550" y="1740" />
            </Array>
          </mxGeometry>
        </mxCell>
        <mxCell id="NuIHAraIDTzX2-PyyU_d-69" style="edgeStyle=orthogonalEdgeStyle;rounded=0;orthogonalLoop=1;jettySize=auto;html=1;exitX=0;exitY=0.5;exitDx=0;exitDy=0;entryX=0.5;entryY=0;entryDx=0;entryDy=0;strokeColor=#CC0000;" parent="1" source="NuIHAraIDTzX2-PyyU_d-31" target="NuIHAraIDTzX2-PyyU_d-60" edge="1">
          <mxGeometry relative="1" as="geometry">
            <mxPoint x="720" y="890" as="targetPoint" />
            <Array as="points">
              <mxPoint x="80" y="649" />
              <mxPoint x="80" y="1690" />
              <mxPoint x="870" y="1690" />
            </Array>
          </mxGeometry>
        </mxCell>
        <mxCell id="NuIHAraIDTzX2-PyyU_d-91" style="edgeStyle=orthogonalEdgeStyle;rounded=0;orthogonalLoop=1;jettySize=auto;html=1;exitX=1;exitY=0.75;exitDx=0;exitDy=0;entryX=0.5;entryY=0;entryDx=0;entryDy=0;strokeColor=#7F00FF;" parent="1" source="NuIHAraIDTzX2-PyyU_d-74" target="NuIHAraIDTzX2-PyyU_d-61" edge="1">
          <mxGeometry relative="1" as="geometry">
            <mxPoint x="1100" y="1060" as="targetPoint" />
            <Array as="points">
              <mxPoint x="565" y="990" />
              <mxPoint x="1140" y="990" />
            </Array>
          </mxGeometry>
        </mxCell>
        <mxCell id="NuIHAraIDTzX2-PyyU_d-74" value="integration_requested" style="swimlane;fontStyle=0;childLayout=stackLayout;horizontal=1;startSize=26;fillColor=#E6E6E6;horizontalStack=0;resizeParent=1;resizeParentMax=0;resizeLast=0;collapsible=1;marginBottom=0;html=1;" parent="1" vertex="1">
          <mxGeometry x="230" y="880" width="335" height="144" as="geometry" />
        </mxCell>
        <mxCell id="NuIHAraIDTzX2-PyyU_d-75" value="FO:&amp;nbsp;submitter_cancel_requested" style="text;strokeColor=none;fillColor=#AEE0D7;align=left;verticalAlign=top;spacingLeft=4;spacingRight=4;overflow=hidden;rotatable=0;points=[[0,0.5],[1,0.5]];portConstraint=eastwest;whiteSpace=wrap;html=1;" parent="NuIHAraIDTzX2-PyyU_d-74" vertex="1">
          <mxGeometry y="26" width="335" height="22" as="geometry" />
        </mxCell>
        <mxCell id="NuIHAraIDTzX2-PyyU_d-90" value="FO:&amp;nbsp;instance_integrated_to_&amp;lt;BO&amp;gt;_sended" style="text;strokeColor=none;fillColor=#AEE0D7;align=left;verticalAlign=top;spacingLeft=4;spacingRight=4;overflow=hidden;rotatable=0;points=[[0,0.5],[1,0.5]];portConstraint=eastwest;whiteSpace=wrap;html=1;" parent="NuIHAraIDTzX2-PyyU_d-74" vertex="1">
          <mxGeometry y="48" width="335" height="22" as="geometry" />
        </mxCell>
        <mxCell id="NuIHAraIDTzX2-PyyU_d-81" value="BO:&amp;nbsp;end_by_submitter_cancel_requested" style="text;strokeColor=#FF0000;fillColor=#FFF2CC;align=left;verticalAlign=top;spacingLeft=4;spacingRight=4;overflow=hidden;rotatable=0;points=[[0,0.5],[1,0.5]];portConstraint=eastwest;whiteSpace=wrap;html=1;" parent="NuIHAraIDTzX2-PyyU_d-74" vertex="1">
          <mxGeometry y="70" width="335" height="26" as="geometry" />
        </mxCell>
        <mxCell id="NuIHAraIDTzX2-PyyU_d-85" value="BO:&amp;nbsp;end_by_integration_request_time_expired" style="text;strokeColor=#7F00FF;fillColor=#FFF2CC;align=left;verticalAlign=top;spacingLeft=4;spacingRight=4;overflow=hidden;rotatable=0;points=[[0,0.5],[1,0.5]];portConstraint=eastwest;whiteSpace=wrap;html=1;" parent="NuIHAraIDTzX2-PyyU_d-74" vertex="1">
          <mxGeometry y="96" width="335" height="26" as="geometry" />
        </mxCell>
        <mxCell id="dxOMre-rwGwUVJYAHMXU-2" value="BO:&amp;nbsp;instance_integrated_retrieved" style="text;strokeColor=#666600;fillColor=#FFF2CC;align=left;verticalAlign=top;spacingLeft=4;spacingRight=4;overflow=hidden;rotatable=0;points=[[0,0.5],[1,0.5]];portConstraint=eastwest;whiteSpace=wrap;html=1;" parent="NuIHAraIDTzX2-PyyU_d-74" vertex="1">
          <mxGeometry y="122" width="335" height="22" as="geometry" />
        </mxCell>
        <mxCell id="NuIHAraIDTzX2-PyyU_d-94" style="edgeStyle=orthogonalEdgeStyle;rounded=0;orthogonalLoop=1;jettySize=auto;html=1;exitX=1;exitY=0.5;exitDx=0;exitDy=0;entryX=0.5;entryY=1;entryDx=0;entryDy=0;strokeColor=#FF0000;" parent="1" source="NuIHAraIDTzX2-PyyU_d-81" target="NuIHAraIDTzX2-PyyU_d-9" edge="1">
          <mxGeometry relative="1" as="geometry" />
        </mxCell>
        <mxCell id="NuIHAraIDTzX2-PyyU_d-98" value="integrated" style="swimlane;fontStyle=0;childLayout=stackLayout;horizontal=1;startSize=26;fillColor=#E6E6E6;horizontalStack=0;resizeParent=1;resizeParentMax=0;resizeLast=0;collapsible=1;marginBottom=0;html=1;" parent="1" vertex="1">
          <mxGeometry x="200" y="1280" width="335" height="256" as="geometry" />
        </mxCell>
        <mxCell id="NuIHAraIDTzX2-PyyU_d-99" value="FO:&amp;nbsp;submitter_cancel_requested" style="text;strokeColor=none;fillColor=#AEE0D7;align=left;verticalAlign=top;spacingLeft=4;spacingRight=4;overflow=hidden;rotatable=0;points=[[0,0.5],[1,0.5]];portConstraint=eastwest;whiteSpace=wrap;html=1;" parent="NuIHAraIDTzX2-PyyU_d-98" vertex="1">
          <mxGeometry y="26" width="335" height="22" as="geometry" />
        </mxCell>
        <mxCell id="NuIHAraIDTzX2-PyyU_d-101" value="BO:&amp;nbsp;end_by_submitter_cancel_requested" style="text;strokeColor=#FF0000;fillColor=#FFF2CC;align=left;verticalAlign=top;spacingLeft=4;spacingRight=4;overflow=hidden;rotatable=0;points=[[0,0.5],[1,0.5]];portConstraint=eastwest;whiteSpace=wrap;html=1;" parent="NuIHAraIDTzX2-PyyU_d-98" vertex="1">
          <mxGeometry y="48" width="335" height="26" as="geometry" />
        </mxCell>
        <mxCell id="NuIHAraIDTzX2-PyyU_d-102" value="BO:&amp;nbsp;end_by_conformation_requested" style="text;strokeColor=#00CC66;fillColor=#FFF2CC;align=left;verticalAlign=top;spacingLeft=4;spacingRight=4;overflow=hidden;rotatable=0;points=[[0,0.5],[1,0.5]];portConstraint=eastwest;whiteSpace=wrap;html=1;" parent="NuIHAraIDTzX2-PyyU_d-98" vertex="1">
          <mxGeometry y="74" width="335" height="26" as="geometry" />
        </mxCell>
        <mxCell id="NuIHAraIDTzX2-PyyU_d-103" value="BO:&amp;nbsp;end_by_proceeding_time_expired" style="text;strokeColor=#CC00CC;fillColor=#FFF2CC;align=left;verticalAlign=top;spacingLeft=4;spacingRight=4;overflow=hidden;rotatable=0;points=[[0,0.5],[1,0.5]];portConstraint=eastwest;whiteSpace=wrap;html=1;" parent="NuIHAraIDTzX2-PyyU_d-98" vertex="1">
          <mxGeometry y="100" width="335" height="26" as="geometry" />
        </mxCell>
        <mxCell id="NuIHAraIDTzX2-PyyU_d-104" value="BO:&amp;nbsp;end_by_suspension_requested" style="text;strokeColor=#CC0000;fillColor=#FFF2CC;align=left;verticalAlign=top;spacingLeft=4;spacingRight=4;overflow=hidden;rotatable=0;points=[[0,0.5],[1,0.5]];portConstraint=eastwest;whiteSpace=wrap;html=1;" parent="NuIHAraIDTzX2-PyyU_d-98" vertex="1">
          <mxGeometry y="126" width="335" height="26" as="geometry" />
        </mxCell>
        <mxCell id="NuIHAraIDTzX2-PyyU_d-159" value="BO:&amp;nbsp;instance_integrated_to_&amp;lt;ET&amp;gt;_sended" style="text;strokeColor=none;fillColor=#FFF2CC;align=left;verticalAlign=top;spacingLeft=4;spacingRight=4;overflow=hidden;rotatable=0;points=[[0,0.5],[1,0.5]];portConstraint=eastwest;whiteSpace=wrap;html=1;" parent="NuIHAraIDTzX2-PyyU_d-98" vertex="1">
          <mxGeometry y="152" width="335" height="26" as="geometry" />
        </mxCell>
        <mxCell id="NuIHAraIDTzX2-PyyU_d-116" value="ET:&amp;nbsp;instance_integrated_retrived" style="text;strokeColor=none;fillColor=#D4E1F5;align=left;verticalAlign=top;spacingLeft=4;spacingRight=4;overflow=hidden;rotatable=0;points=[[0,0.5],[1,0.5]];portConstraint=eastwest;whiteSpace=wrap;html=1;" parent="NuIHAraIDTzX2-PyyU_d-98" vertex="1">
          <mxGeometry y="178" width="335" height="26" as="geometry" />
        </mxCell>
        <mxCell id="NuIHAraIDTzX2-PyyU_d-106" value="ET:&amp;nbsp;suspension_requested" style="text;strokeColor=none;fillColor=#D4E1F5;align=left;verticalAlign=top;spacingLeft=4;spacingRight=4;overflow=hidden;rotatable=0;points=[[0,0.5],[1,0.5]];portConstraint=eastwest;whiteSpace=wrap;html=1;" parent="NuIHAraIDTzX2-PyyU_d-98" vertex="1">
          <mxGeometry y="204" width="335" height="26" as="geometry" />
        </mxCell>
        <mxCell id="NuIHAraIDTzX2-PyyU_d-107" value="ET:&amp;nbsp;conformation_requested" style="text;strokeColor=none;fillColor=#D4E1F5;align=left;verticalAlign=top;spacingLeft=4;spacingRight=4;overflow=hidden;rotatable=0;points=[[0,0.5],[1,0.5]];portConstraint=eastwest;whiteSpace=wrap;html=1;" parent="NuIHAraIDTzX2-PyyU_d-98" vertex="1">
          <mxGeometry y="230" width="335" height="26" as="geometry" />
        </mxCell>
        <mxCell id="NuIHAraIDTzX2-PyyU_d-108" style="edgeStyle=orthogonalEdgeStyle;rounded=0;orthogonalLoop=1;jettySize=auto;html=1;exitX=0;exitY=0.5;exitDx=0;exitDy=0;entryX=0.5;entryY=0;entryDx=0;entryDy=0;strokeColor=#666600;" parent="1" source="dxOMre-rwGwUVJYAHMXU-2" target="NuIHAraIDTzX2-PyyU_d-98" edge="1">
          <mxGeometry relative="1" as="geometry">
            <Array as="points">
              <mxPoint x="120" y="1013" />
              <mxPoint x="120" y="1200" />
              <mxPoint x="368" y="1200" />
            </Array>
          </mxGeometry>
        </mxCell>
        <mxCell id="NuIHAraIDTzX2-PyyU_d-111" style="edgeStyle=orthogonalEdgeStyle;rounded=0;orthogonalLoop=1;jettySize=auto;html=1;exitX=1;exitY=0.5;exitDx=0;exitDy=0;entryX=0.5;entryY=1;entryDx=0;entryDy=0;strokeColor=#FF0000;" parent="1" source="NuIHAraIDTzX2-PyyU_d-101" target="NuIHAraIDTzX2-PyyU_d-9" edge="1">
          <mxGeometry relative="1" as="geometry" />
        </mxCell>
        <mxCell id="NuIHAraIDTzX2-PyyU_d-118" value="correction_requested" style="swimlane;fontStyle=0;childLayout=stackLayout;horizontal=1;startSize=26;fillColor=#E6E6E6;horizontalStack=0;resizeParent=1;resizeParentMax=0;resizeLast=0;collapsible=1;marginBottom=0;html=1;" parent="1" vertex="1">
          <mxGeometry x="1120" y="400" width="335" height="100" as="geometry">
            <mxRectangle x="95" y="90" width="80" height="30" as="alternateBounds" />
          </mxGeometry>
        </mxCell>
        <mxCell id="NuIHAraIDTzX2-PyyU_d-119" value="FO:&amp;nbsp;corrected_instance_to_&amp;lt;BO&amp;gt;_sended" style="text;strokeColor=#006600;fillColor=#AEE0D7;align=left;verticalAlign=top;spacingLeft=4;spacingRight=4;overflow=hidden;rotatable=0;points=[[0,0.5],[1,0.5]];portConstraint=eastwest;whiteSpace=wrap;html=1;" parent="NuIHAraIDTzX2-PyyU_d-118" vertex="1">
          <mxGeometry y="26" width="335" height="26" as="geometry" />
        </mxCell>
        <mxCell id="NuIHAraIDTzX2-PyyU_d-120" value="FO:&amp;nbsp;submitter_cancel_requested" style="text;strokeColor=none;fillColor=#AEE0D7;align=left;verticalAlign=top;spacingLeft=4;spacingRight=4;overflow=hidden;rotatable=0;points=[[0,0.5],[1,0.5]];portConstraint=eastwest;whiteSpace=wrap;html=1;" parent="NuIHAraIDTzX2-PyyU_d-118" vertex="1">
          <mxGeometry y="52" width="335" height="22" as="geometry" />
        </mxCell>
        <mxCell id="NuIHAraIDTzX2-PyyU_d-123" value="BO:&amp;nbsp;end_by_submitter_cancel_requested" style="text;strokeColor=#FF0000;fillColor=#FFF2CC;align=left;verticalAlign=top;spacingLeft=4;spacingRight=4;overflow=hidden;rotatable=0;points=[[0,0.5],[1,0.5]];portConstraint=eastwest;whiteSpace=wrap;html=1;" parent="NuIHAraIDTzX2-PyyU_d-118" vertex="1">
          <mxGeometry y="74" width="335" height="26" as="geometry" />
        </mxCell>
        <mxCell id="NuIHAraIDTzX2-PyyU_d-124" style="edgeStyle=orthogonalEdgeStyle;rounded=0;orthogonalLoop=1;jettySize=auto;html=1;exitX=0;exitY=0.5;exitDx=0;exitDy=0;entryX=0.5;entryY=1;entryDx=0;entryDy=0;strokeColor=#FF0000;" parent="1" source="NuIHAraIDTzX2-PyyU_d-123" target="NuIHAraIDTzX2-PyyU_d-9" edge="1">
          <mxGeometry relative="1" as="geometry" />
        </mxCell>
        <mxCell id="NuIHAraIDTzX2-PyyU_d-126" style="edgeStyle=orthogonalEdgeStyle;rounded=0;orthogonalLoop=1;jettySize=auto;html=1;exitX=1;exitY=0.5;exitDx=0;exitDy=0;entryX=0.5;entryY=0;entryDx=0;entryDy=0;strokeColor=#006600;" parent="1" source="NuIHAraIDTzX2-PyyU_d-37" target="NuIHAraIDTzX2-PyyU_d-118" edge="1">
          <mxGeometry relative="1" as="geometry">
            <mxPoint x="1280" y="140" as="targetPoint" />
            <Array as="points">
              <mxPoint x="680" y="467" />
              <mxPoint x="680" y="360" />
              <mxPoint x="1288" y="360" />
            </Array>
          </mxGeometry>
        </mxCell>
        <mxCell id="NuIHAraIDTzX2-PyyU_d-128" value="corrected" style="swimlane;fontStyle=0;childLayout=stackLayout;horizontal=1;startSize=26;fillColor=#E6E6E6;horizontalStack=0;resizeParent=1;resizeParentMax=0;resizeLast=0;collapsible=1;marginBottom=0;html=1;" parent="1" vertex="1">
          <mxGeometry x="1430" y="560" width="335" height="412" as="geometry" />
        </mxCell>
        <mxCell id="NuIHAraIDTzX2-PyyU_d-129" value="FO:&amp;nbsp;submitter_cancel_requested" style="text;strokeColor=none;fillColor=#AEE0D7;align=left;verticalAlign=top;spacingLeft=4;spacingRight=4;overflow=hidden;rotatable=0;points=[[0,0.5],[1,0.5]];portConstraint=eastwest;whiteSpace=wrap;html=1;" parent="NuIHAraIDTzX2-PyyU_d-128" vertex="1">
          <mxGeometry y="26" width="335" height="22" as="geometry" />
        </mxCell>
        <mxCell id="NuIHAraIDTzX2-PyyU_d-130" value="BO:&amp;nbsp;instance_retrived" style="text;strokeColor=none;fillColor=#FFF2CC;align=left;verticalAlign=top;spacingLeft=4;spacingRight=4;overflow=hidden;rotatable=0;points=[[0,0.5],[1,0.5]];portConstraint=eastwest;whiteSpace=wrap;html=1;" parent="NuIHAraIDTzX2-PyyU_d-128" vertex="1">
          <mxGeometry y="48" width="335" height="26" as="geometry" />
        </mxCell>
        <mxCell id="NuIHAraIDTzX2-PyyU_d-131" value="BO:&amp;nbsp;corrected_instance_retrived" style="text;strokeColor=#1C1C1C;fillColor=#FFF2CC;align=left;verticalAlign=top;spacingLeft=4;spacingRight=4;overflow=hidden;rotatable=0;points=[[0,0.5],[1,0.5]];portConstraint=eastwest;whiteSpace=wrap;html=1;" parent="NuIHAraIDTzX2-PyyU_d-128" vertex="1">
          <mxGeometry y="74" width="335" height="26" as="geometry" />
        </mxCell>
        <mxCell id="NuIHAraIDTzX2-PyyU_d-132" value="BO:&amp;nbsp;instance_to_&amp;lt;ET&amp;gt;_sended" style="text;strokeColor=none;fillColor=#FFF2CC;align=left;verticalAlign=top;spacingLeft=4;spacingRight=4;overflow=hidden;rotatable=0;points=[[0,0.5],[1,0.5]];portConstraint=eastwest;whiteSpace=wrap;html=1;" parent="NuIHAraIDTzX2-PyyU_d-128" vertex="1">
          <mxGeometry y="100" width="335" height="26" as="geometry" />
        </mxCell>
        <mxCell id="NuIHAraIDTzX2-PyyU_d-133" value="BO:&amp;nbsp;integration_requested" style="text;strokeColor=#666600;fillColor=#FFF2CC;align=left;verticalAlign=top;spacingLeft=4;spacingRight=4;overflow=hidden;rotatable=0;points=[[0,0.5],[1,0.5]];portConstraint=eastwest;whiteSpace=wrap;html=1;" parent="NuIHAraIDTzX2-PyyU_d-128" vertex="1">
          <mxGeometry y="126" width="335" height="26" as="geometry" />
        </mxCell>
        <mxCell id="NuIHAraIDTzX2-PyyU_d-134" value="BO:&amp;nbsp;integration_request_time_expired" style="text;strokeColor=none;fillColor=#FFF2CC;align=left;verticalAlign=top;spacingLeft=4;spacingRight=4;overflow=hidden;rotatable=0;points=[[0,0.5],[1,0.5]];portConstraint=eastwest;whiteSpace=wrap;html=1;" parent="NuIHAraIDTzX2-PyyU_d-128" vertex="1">
          <mxGeometry y="152" width="335" height="26" as="geometry" />
        </mxCell>
        <mxCell id="NuIHAraIDTzX2-PyyU_d-135" value="BO:&amp;nbsp;end_by_submitter_cancel_requested" style="text;strokeColor=#FF0000;fillColor=#FFF2CC;align=left;verticalAlign=top;spacingLeft=4;spacingRight=4;overflow=hidden;rotatable=0;points=[[0,0.5],[1,0.5]];portConstraint=eastwest;whiteSpace=wrap;html=1;" parent="NuIHAraIDTzX2-PyyU_d-128" vertex="1">
          <mxGeometry y="178" width="335" height="26" as="geometry" />
        </mxCell>
        <mxCell id="NuIHAraIDTzX2-PyyU_d-136" value="BO:&amp;nbsp;end_by_conformation_requested&amp;nbsp;" style="text;strokeColor=#00CC66;fillColor=#FFF2CC;align=left;verticalAlign=top;spacingLeft=4;spacingRight=4;overflow=hidden;rotatable=0;points=[[0,0.5],[1,0.5]];portConstraint=eastwest;whiteSpace=wrap;html=1;" parent="NuIHAraIDTzX2-PyyU_d-128" vertex="1">
          <mxGeometry y="204" width="335" height="26" as="geometry" />
        </mxCell>
        <mxCell id="NuIHAraIDTzX2-PyyU_d-137" value="BO:&amp;nbsp;end_by_proceeding_time_expired" style="text;strokeColor=#CC00CC;fillColor=#FFF2CC;align=left;verticalAlign=top;spacingLeft=4;spacingRight=4;overflow=hidden;rotatable=0;points=[[0,0.5],[1,0.5]];portConstraint=eastwest;whiteSpace=wrap;html=1;" parent="NuIHAraIDTzX2-PyyU_d-128" vertex="1">
          <mxGeometry y="230" width="335" height="26" as="geometry" />
        </mxCell>
        <mxCell id="NuIHAraIDTzX2-PyyU_d-138" value="BO:&amp;nbsp;end_by_suspension_requested" style="text;strokeColor=#CC0000;fillColor=#FFF2CC;align=left;verticalAlign=top;spacingLeft=4;spacingRight=4;overflow=hidden;rotatable=0;points=[[0,0.5],[1,0.5]];portConstraint=eastwest;whiteSpace=wrap;html=1;" parent="NuIHAraIDTzX2-PyyU_d-128" vertex="1">
          <mxGeometry y="256" width="335" height="26" as="geometry" />
        </mxCell>
        <mxCell id="NuIHAraIDTzX2-PyyU_d-139" value="BO:&amp;nbsp;end_by_instance_refused" style="text;strokeColor=#7F00FF;fillColor=#FFF2CC;align=left;verticalAlign=top;spacingLeft=4;spacingRight=4;overflow=hidden;rotatable=0;points=[[0,0.5],[1,0.5]];portConstraint=eastwest;whiteSpace=wrap;html=1;" parent="NuIHAraIDTzX2-PyyU_d-128" vertex="1">
          <mxGeometry y="282" width="335" height="26" as="geometry" />
        </mxCell>
        <mxCell id="NuIHAraIDTzX2-PyyU_d-140" value="ET:&amp;nbsp;instance_retrived" style="text;strokeColor=none;fillColor=#D4E1F5;align=left;verticalAlign=top;spacingLeft=4;spacingRight=4;overflow=hidden;rotatable=0;points=[[0,0.5],[1,0.5]];portConstraint=eastwest;whiteSpace=wrap;html=1;" parent="NuIHAraIDTzX2-PyyU_d-128" vertex="1">
          <mxGeometry y="308" width="335" height="26" as="geometry" />
        </mxCell>
        <mxCell id="NuIHAraIDTzX2-PyyU_d-141" value="ET:&amp;nbsp;conformation_requested" style="text;strokeColor=none;fillColor=#D4E1F5;align=left;verticalAlign=top;spacingLeft=4;spacingRight=4;overflow=hidden;rotatable=0;points=[[0,0.5],[1,0.5]];portConstraint=eastwest;whiteSpace=wrap;html=1;" parent="NuIHAraIDTzX2-PyyU_d-128" vertex="1">
          <mxGeometry y="334" width="335" height="26" as="geometry" />
        </mxCell>
        <mxCell id="NuIHAraIDTzX2-PyyU_d-142" value="ET:&amp;nbsp;suspension_requested" style="text;strokeColor=none;fillColor=#D4E1F5;align=left;verticalAlign=top;spacingLeft=4;spacingRight=4;overflow=hidden;rotatable=0;points=[[0,0.5],[1,0.5]];portConstraint=eastwest;whiteSpace=wrap;html=1;" parent="NuIHAraIDTzX2-PyyU_d-128" vertex="1">
          <mxGeometry y="360" width="335" height="26" as="geometry" />
        </mxCell>
        <mxCell id="NuIHAraIDTzX2-PyyU_d-143" value="ET:&amp;nbsp;integration_requested_from_&amp;lt;ET&amp;gt;" style="text;strokeColor=none;fillColor=#D4E1F5;align=left;verticalAlign=top;spacingLeft=4;spacingRight=4;overflow=hidden;rotatable=0;points=[[0,0.5],[1,0.5]];portConstraint=eastwest;whiteSpace=wrap;html=1;" parent="NuIHAraIDTzX2-PyyU_d-128" vertex="1">
          <mxGeometry y="386" width="335" height="26" as="geometry" />
        </mxCell>
        <mxCell id="NuIHAraIDTzX2-PyyU_d-144" style="edgeStyle=orthogonalEdgeStyle;rounded=0;orthogonalLoop=1;jettySize=auto;html=1;exitX=1;exitY=0.5;exitDx=0;exitDy=0;entryX=0.5;entryY=0;entryDx=0;entryDy=0;strokeColor=#006600;" parent="1" source="NuIHAraIDTzX2-PyyU_d-119" target="NuIHAraIDTzX2-PyyU_d-128" edge="1">
          <mxGeometry relative="1" as="geometry" />
        </mxCell>
        <mxCell id="NuIHAraIDTzX2-PyyU_d-146" style="edgeStyle=orthogonalEdgeStyle;rounded=0;orthogonalLoop=1;jettySize=auto;html=1;exitX=0;exitY=0.5;exitDx=0;exitDy=0;entryX=0.5;entryY=0;entryDx=0;entryDy=0;strokeColor=#7F00FF;" parent="1" source="NuIHAraIDTzX2-PyyU_d-139" target="NuIHAraIDTzX2-PyyU_d-61" edge="1">
          <mxGeometry relative="1" as="geometry">
            <Array as="points">
              <mxPoint x="1140" y="855" />
            </Array>
          </mxGeometry>
        </mxCell>
        <mxCell id="NuIHAraIDTzX2-PyyU_d-150" style="edgeStyle=orthogonalEdgeStyle;rounded=0;orthogonalLoop=1;jettySize=auto;html=1;exitX=1;exitY=0.5;exitDx=0;exitDy=0;entryX=0.5;entryY=0;entryDx=0;entryDy=0;strokeColor=#CC00CC;" parent="1" source="NuIHAraIDTzX2-PyyU_d-137" target="NuIHAraIDTzX2-PyyU_d-59" edge="1">
          <mxGeometry relative="1" as="geometry">
            <mxPoint x="1260" y="1690" as="targetPoint" />
            <Array as="points">
              <mxPoint x="1830" y="803" />
              <mxPoint x="1830" y="1640" />
              <mxPoint x="550" y="1640" />
            </Array>
          </mxGeometry>
        </mxCell>
        <mxCell id="NuIHAraIDTzX2-PyyU_d-151" style="edgeStyle=orthogonalEdgeStyle;rounded=0;orthogonalLoop=1;jettySize=auto;html=1;exitX=1;exitY=0.5;exitDx=0;exitDy=0;entryX=0.5;entryY=0;entryDx=0;entryDy=0;strokeColor=#00CC66;" parent="1" source="NuIHAraIDTzX2-PyyU_d-136" target="NuIHAraIDTzX2-PyyU_d-58" edge="1">
          <mxGeometry relative="1" as="geometry">
            <mxPoint x="1890" y="1920" as="targetPoint" />
            <Array as="points">
              <mxPoint x="1880" y="777" />
              <mxPoint x="1880" y="1600" />
              <mxPoint x="230" y="1600" />
            </Array>
          </mxGeometry>
        </mxCell>
        <mxCell id="NuIHAraIDTzX2-PyyU_d-154" style="edgeStyle=orthogonalEdgeStyle;rounded=0;orthogonalLoop=1;jettySize=auto;html=1;exitX=0;exitY=0.5;exitDx=0;exitDy=0;entryX=0.5;entryY=1;entryDx=0;entryDy=0;strokeColor=#FF0000;" parent="1" source="NuIHAraIDTzX2-PyyU_d-135" target="NuIHAraIDTzX2-PyyU_d-9" edge="1">
          <mxGeometry relative="1" as="geometry">
            <mxPoint x="850" y="230" as="targetPoint" />
          </mxGeometry>
        </mxCell>
        <mxCell id="NuIHAraIDTzX2-PyyU_d-157" value="" style="shape=flexArrow;endArrow=classic;html=1;rounded=0;entryX=0.5;entryY=0;entryDx=0;entryDy=0;fillColor=#006600;width=16.571428571428573;endSize=5.828571428571428;" parent="1" target="NuIHAraIDTzX2-PyyU_d-1" edge="1">
          <mxGeometry width="50" height="50" relative="1" as="geometry">
            <mxPoint x="288" y="50" as="sourcePoint" />
            <mxPoint x="650" y="210" as="targetPoint" />
          </mxGeometry>
        </mxCell>
        <mxCell id="dxOMre-rwGwUVJYAHMXU-1" style="edgeStyle=orthogonalEdgeStyle;rounded=0;orthogonalLoop=1;jettySize=auto;html=1;entryX=0.75;entryY=0;entryDx=0;entryDy=0;strokeColor=#666600;" parent="1" source="NuIHAraIDTzX2-PyyU_d-32" target="NuIHAraIDTzX2-PyyU_d-74" edge="1">
          <mxGeometry relative="1" as="geometry" />
        </mxCell>
        <mxCell id="dxOMre-rwGwUVJYAHMXU-3" style="edgeStyle=orthogonalEdgeStyle;rounded=0;orthogonalLoop=1;jettySize=auto;html=1;entryX=0.75;entryY=0;entryDx=0;entryDy=0;strokeColor=#666600;" parent="1" source="NuIHAraIDTzX2-PyyU_d-133" target="NuIHAraIDTzX2-PyyU_d-74" edge="1">
          <mxGeometry relative="1" as="geometry" />
        </mxCell>
      </root>
    </mxGraphModel>
  </diagram>
</mxfile>
